# xmcd
#
# Track frame offsets:
#	150
#	23400
#	42230
#	59427
#	83187
#	102620
#	122655
#	138405
#	158365
#	179317
#	196077
#	219410
#
# Disc length: 3244 seconds
#
# Revision: 0
# Processed by: cddbd v1.5.1PL2 Copyright (c) Steve Scherf et al.
# Submitted via: audiograbber 1.82.02
#
DISCID=980caa0c
DTITLE=Devious Steve - Where I Stay
DYEAR=1994
DGENRE=Rap
TTITLE0=Gangsters Party Too
TTITLE1=Pop Dat Thang
TTITLE2=While We Ride
TTITLE3=Where I Stay
TTITLE4=What That Girl Needs (Rap)
TTITLE5=First Time
TTITLE6=Radio Interview
TTITLE7=It's A Mad World
TTITLE8=U Can Have My Cadillac
TTITLE9=I Got That 9
TTITLE10=Easy Prey
TTITLE11=What That Girl Needs (Vox)
EXTD=Cashflow420.com
EXTT0=
EXTT1=
EXTT2=
EXTT3=
EXTT4=
EXTT5=
EXTT6=
EXTT7=
EXTT8=
EXTT9=
EXTT10=
EXTT11=
PLAYORDER=
